<?xml version="1.0" encoding="UTF-8" standalone="no"?>
<!-- Created with Inkscape (http://www.inkscape.org/) -->

<svg
   width="396.875mm"
   height="529.16669mm"
   viewBox="0 0 396.875 529.16669"
   version="1.1"
   id="svg5"
   xml:space="preserve"
   inkscape:version="1.2.1 (9c6d41e, 2022-07-14)"
   sodipodi:docname="HappeningsLogoWhite.svg"
   xmlns:inkscape="http://www.inkscape.org/namespaces/inkscape"
   xmlns:sodipodi="http://sodipodi.sourceforge.net/DTD/sodipodi-0.dtd"
   xmlns="http://www.w3.org/2000/svg"
   xmlns:svg="http://www.w3.org/2000/svg"><sodipodi:namedview
     id="namedview7"
     pagecolor="#ffffff"
     bordercolor="#000000"
     borderopacity="0.25"
     inkscape:showpageshadow="2"
     inkscape:pageopacity="0.0"
     inkscape:pagecheckerboard="0"
     inkscape:deskcolor="#d1d1d1"
     inkscape:document-units="mm"
     showgrid="false"
     inkscape:zoom="0.2102413"
     inkscape:cx="1426.9318"
     inkscape:cy="1376.9892"
     inkscape:window-width="1463"
     inkscape:window-height="781"
     inkscape:window-x="0"
     inkscape:window-y="25"
     inkscape:window-maximized="0"
     inkscape:current-layer="layer1" /><defs
     id="defs2" /><g
     inkscape:label="Layer 1"
     inkscape:groupmode="layer"
     id="layer1"
     transform="translate(471.52649,215.50284)"><path
       style="fill:#ffffff;stroke-width:0.264583;fill-opacity:1"
       d="m -140.65106,290.13853 c -0.0852,-0.13785 -0.0421,-0.32031 0.0957,-0.4055 0.13785,-0.0852 0.32031,-0.0421 0.4055,0.0957 0.0852,0.13785 0.0421,0.32031 -0.0957,0.4055 -0.13785,0.0852 -0.32031,0.0421 -0.4055,-0.0957 z m -260.7514,-6.73661 c 0.21309,-0.20024 0.74462,-0.44339 1.18118,-0.54033 l 0.79375,-0.17632 -0.86629,0.54033 c -1.00352,0.62592 -1.70606,0.73766 -1.10864,0.17632 z m 232.64701,-22.61254 c -0.0748,-0.28612 -0.6572,-0.67162 -1.43965,-0.95297 -1.00174,-0.36023 -1.60192,-0.82688 -2.52563,-1.96369 -0.66641,-0.82013 -1.44701,-1.58078 -1.73469,-1.69032 -0.28768,-0.10951 -0.58526,-0.43693 -0.66125,-0.7276 -0.076,-0.29065 -0.24339,-0.52845 -0.37192,-0.52845 -0.12856,0 -0.23373,-0.16568 -0.23373,-0.3682 0,-0.20251 -0.27348,-0.43682 -0.60772,-0.52072 -0.94764,-0.23784 -3.44435,-3.02067 -4.66792,-5.2029 -0.60999,-1.08789 -1.60729,-2.52191 -2.2162,-3.1867 -0.60891,-0.66479 -1.34525,-1.54844 -1.63629,-1.96368 -0.29104,-0.41527 -0.9602,-1.24055 -1.48698,-1.83401 -0.52682,-0.59344 -1.26828,-1.73385 -1.6477,-2.53421 -0.37941,-0.80036 -1.21377,-2.05052 -1.85414,-2.77813 -2.98781,-3.39476 -3.77915,-4.38472 -4.26167,-5.33135 -1.17018,-2.29568 -3.10513,-5.66354 -3.45472,-6.01313 -0.2055,-0.20553 -0.68019,-1.06678 -1.05484,-1.91395 -0.37465,-0.84714 -0.76565,-1.60393 -0.86889,-1.68174 -0.24601,-0.18542 -0.82714,-1.24965 -3.03872,-5.56503 -1.00682,-1.96454 -1.92214,-3.69094 -2.03411,-3.83646 -0.11195,-0.14552 -0.54039,-1.03849 -0.95213,-1.98438 -0.41172,-0.94588 -0.9634,-2.00374 -1.22598,-2.35079 -0.26258,-0.34703 -0.47741,-0.80204 -0.47741,-1.01108 0,-0.20905 -0.17859,-0.5587 -0.39688,-0.77698 -0.21828,-0.21828 -0.39687,-0.70128 -0.39687,-1.07336 0,-0.37208 -0.34679,-1.2863 -0.77064,-2.03163 -0.42386,-0.7453 -0.97154,-2.00996 -1.21708,-2.81033 -0.24554,-0.80036 -0.85121,-2.28864 -1.34593,-3.30729 -0.94527,-1.94632 -1.95802,-4.89698 -1.95802,-5.7047 0,-0.59026 -1.16207,-4.33515 -2.0065,-6.46613 -1.44171,-3.63826 -1.45807,-3.70229 -2.21771,-8.67489 -0.15088,-0.98764 -0.4399,-2.0592 -0.64228,-2.38125 -0.20238,-0.32203 -0.49209,-1.31911 -0.6438,-2.21568 -0.1517,-0.89659 -0.52833,-2.12513 -0.83696,-2.73008 -0.30862,-0.60497 -0.62415,-1.71685 -0.70118,-2.47089 -0.077,-0.75403 -0.2976,-1.72815 -0.49018,-2.16471 -1.17849,-2.67161 -1.36073,-3.42538 -1.99422,-8.24841 -0.13715,-1.04416 -0.47801,-2.53244 -0.75747,-3.3073 -0.27946,-0.77488 -0.57941,-2.18278 -0.66656,-3.12867 -0.25743,-2.79426 -0.55808,-4.31215 -1.0324,-5.21237 -0.24538,-0.46572 -0.44789,-1.23962 -0.45,-1.71979 -0.002,-0.48019 -0.18152,-1.38311 -0.39867,-2.00652 -0.21716,-0.62341 -0.37542,-1.64648 -0.3517,-2.27351 0.0237,-0.62701 -0.0451,-1.28281 -0.15298,-1.4573 -0.10785,-0.17452 -0.2954,-1.17549 -0.41677,-2.22443 -0.30379,-2.62525 -1.00635,-5.85888 -1.29377,-5.95469 -0.13081,-0.0436 -0.18825,-1.09402 -0.12764,-2.33423 0.0756,-1.54647 0.022,-2.20049 -0.17032,-2.08161 -0.18419,0.11385 -0.22289,-0.0562 -0.11271,-0.49522 0.0923,-0.36772 0.0687,-0.82418 -0.0525,-1.01436 -0.12116,-0.19016 -0.23496,-0.84913 -0.2529,-1.46434 -0.0242,-0.83076 -0.19521,-1.25399 -0.66453,-1.64483 -0.52772,-0.4395 -0.55556,-0.52772 -0.16888,-0.53507 0.56744,-0.0108 0.60511,-0.61984 0.066,-1.06725 -0.24208,-0.2009 -0.39035,-0.75562 -0.37996,-1.42145 0.0354,-2.26684 -0.0408,-3.07636 -0.28943,-3.07636 -0.14109,0 -0.25653,-0.3047 -0.25653,-0.67707 0,-0.42847 -0.10776,-0.61047 -0.29349,-0.4957 -0.20742,0.12819 -0.23944,-0.13859 -0.10919,-0.90953 0.15162,-0.89744 0.0629,-1.30823 -0.50025,-2.31579 -0.37651,-0.67363 -0.68457,-1.50747 -0.68457,-1.85296 0,-0.47262 -0.14738,-0.6301 -0.59531,-0.63616 -0.57887,-0.008 -0.5807,-0.0164 -0.0661,-0.30811 0.86561,-0.49085 0.93484,-0.77092 0.77206,-3.12343 -0.26593,-3.843234 -0.84826,-4.712576 -2.69542,-4.023945 -1.42146,0.529961 -6.63195,1.134905 -11.83497,1.374065 -13.57818,0.62417 -22.13912,1.23515 -25.79687,1.84102 -0.80037,0.13258 -3.65787,0.25048 -6.35,0.26202 -5.50607,0.0235 -17.97268,0.44558 -20.72688,0.70162 -1.60451,0.14914 -1.79436,0.22476 -1.67832,0.66852 0.0804,0.30739 0.0235,0.43402 -0.14742,0.32838 -0.18058,-0.11163 -0.2285,0.0884 -0.13649,0.5697 0.10579,0.55343 -0.0201,0.90352 -0.49586,1.3793 -0.35071,0.3507 -0.5751,0.73885 -0.49865,0.86256 0.0764,0.1237 -5.3e-4,0.27144 -0.17133,0.32833 -0.18315,0.0611 -0.30704,0.6396 -0.3023,1.41168 0.004,0.71951 -0.10412,1.45071 -0.2412,1.62486 -0.13709,0.17417 -0.28964,0.94808 -0.33901,1.71979 -0.0494,0.77174 -0.15347,1.58173 -0.23134,1.80001 -0.32713,0.917 -0.37491,2.21399 -0.0979,2.65756 0.21784,0.3488 0.21968,0.72919 0.007,1.42256 -0.15976,0.52054 -0.19616,1.00475 -0.0809,1.07598 0.4122,0.25477 -0.18522,13.39649 -0.64265,14.13663 -0.0974,0.15754 -0.10399,0.40463 -0.0147,0.54909 0.0893,0.14444 -0.0266,1.35724 -0.25745,2.69508 -0.23087,1.33781 -0.48688,3.03532 -0.56891,3.77224 -0.082,0.73689 -0.22265,1.45881 -0.3125,1.60425 -0.0899,0.14544 -0.13203,0.56314 -0.0937,0.92821 0.0383,0.36507 -0.12895,1.13906 -0.37166,1.71995 -0.24271,0.58089 -0.42726,1.08593 -0.41011,1.12231 0.0172,0.0364 0.0175,0.15544 8e-4,0.26458 -0.0168,0.10914 -0.0101,0.40212 0.0149,0.65106 0.0249,0.24895 -0.0934,0.71192 -0.26302,1.02881 -0.16959,0.31689 -0.35451,1.00616 -0.41093,1.53173 -0.18476,1.72111 -0.21531,1.84419 -0.42549,1.71431 -0.17625,-0.10893 -0.23094,0.11562 -0.20252,0.83156 0.003,0.0743 -0.18189,0.49715 -0.41076,0.93975 -0.3541,0.68474 -0.57259,1.73815 -0.63769,3.07453 -0.008,0.17209 -0.24302,0.38521 -0.52141,0.47356 -0.54242,0.17216 -1.41467,2.35323 -2.39962,6.00024 -0.4478,1.65807 -0.53355,2.65486 -0.47409,5.51104 0.0641,3.07964 0.018,3.52681 -0.39504,3.82918 -0.26321,0.19267 -0.39969,0.51932 -0.31221,0.74729 0.0855,0.22272 -0.0908,1.20211 -0.39174,2.17641 -0.30093,0.9743 -0.48382,1.87391 -0.40643,1.99914 0.0774,0.12522 0.0304,0.4409 -0.10435,0.70146 -0.13478,0.26059 -0.3811,1.2155 -0.54738,2.12198 -0.33976,1.85241 -0.96729,3.81879 -2.93587,9.19973 -1.66199,4.54292 -1.70598,4.67936 -2.08943,6.48229 -0.85773,4.03291 -3.04891,10.78778 -3.72247,11.47548 -0.12427,0.12687 -0.16297,0.39476 -0.086,0.59531 0.077,0.20053 0.008,0.36463 -0.15296,0.36463 -0.16109,0 -0.29289,0.14099 -0.29289,0.31334 0,0.17232 -0.24623,0.82198 -0.54717,1.44365 -0.30095,0.62166 -0.56884,1.55167 -0.59532,2.06671 -0.0265,0.51504 -0.1282,0.93694 -0.22606,0.9376 -0.26464,0.003 -0.81014,1.80346 -0.63287,2.09029 0.0841,0.13605 -0.12147,0.58486 -0.45677,0.99735 -0.63828,0.78526 -0.70683,1.0741 -0.37772,1.59163 0.10929,0.17184 0.0777,0.38724 -0.0702,0.47863 -0.14789,0.0914 -0.26889,0.40129 -0.26889,0.68866 0,0.28736 -0.35719,0.87164 -0.79375,1.29839 -0.43657,0.42674 -0.79382,0.92876 -0.79389,1.11556 -1.8e-4,0.46514 -1.0418,3.1736 -1.37581,3.57743 -0.14891,0.18005 -0.20665,0.4944 -0.1283,0.69858 0.0784,0.20415 -0.0869,0.61743 -0.36728,0.91834 -0.28035,0.30091 -0.50972,0.71615 -0.50972,0.92276 0,0.20659 -0.1802,0.80688 -0.40043,1.33398 -0.22023,0.52708 -0.33547,0.95835 -0.25608,0.95835 0.25267,0 -1.2372,2.50457 -1.62107,2.72513 -0.20254,0.11636 -0.36826,0.45082 -0.36826,0.74321 0,0.29239 -0.10796,0.46493 -0.23991,0.38335 -0.13195,-0.0815 -0.17272,0.10864 -0.0906,0.42265 0.0887,0.3392 0.0439,0.50578 -0.11033,0.41045 -0.14319,-0.0885 -0.40822,0.41931 -0.59096,1.13231 -0.18223,0.71101 -0.61779,1.60187 -0.96791,1.97966 -0.35012,0.37778 -0.76134,0.92001 -0.91383,1.20492 -0.15248,0.28493 -0.42252,0.48948 -0.60008,0.45453 -0.17755,-0.0349 -0.29306,0.0853 -0.25668,0.26722 0.0364,0.18191 -0.0895,0.33073 -0.27972,0.33073 -0.42346,0 -2.06414,1.32652 -1.92365,1.5553 0.0555,0.0905 -0.30077,0.46215 -0.79183,0.82595 -0.52191,0.38667 -0.89586,0.89702 -0.90012,1.22846 -0.004,0.31187 -0.18588,0.63553 -0.40416,0.7193 -0.21828,0.0838 -0.39687,0.31491 -0.39687,0.51364 0,0.19875 -0.56555,0.89789 -1.25678,1.55363 -0.69122,0.65574 -1.488,1.50175 -1.77063,1.88 -0.28262,0.37824 -0.8184,0.76369 -1.19062,0.85653 -0.37222,0.0929 -0.85536,0.32007 -1.07364,0.50488 -0.58842,0.49824 -1.32292,0.70686 -1.32292,0.37579 0,-0.18423 -0.1509,-0.16344 -0.41704,0.0574 -0.33734,0.27995 -0.45696,0.28152 -0.62592,0.008 -0.31998,-0.51774 -3.56011,-0.41595 -3.35999,0.10554 0.0711,0.18529 -0.41989,0.25083 -1.43555,0.19156 -0.84898,-0.0495 -1.78763,0.0406 -2.08589,0.20019 -0.36329,0.19441 -0.54227,0.19981 -0.54227,0.0164 0,-0.41182 -1.78637,-0.32917 -2.46264,0.11396 -0.66838,0.43793 -1.7707,0.26521 -1.7707,-0.27745 0,-0.53297 -0.8605,-2.27634 -1.38906,-2.81421 -0.25472,-0.25932 -0.46308,-0.70948 -0.46308,-1.00052 0,-0.38807 -0.17639,-0.52917 -0.66145,-0.52917 -0.55231,0 -0.66146,-0.12562 -0.66146,-0.76136 0,-0.41873 -0.1786,-0.90956 -0.39688,-1.09072 -0.21828,-0.18116 -0.39687,-0.51324 -0.39687,-0.73795 0,-0.22471 -0.0786,-0.32996 -0.17471,-0.23387 -0.24666,0.24665 -0.94921,-0.82468 -0.75105,-1.14533 0.0898,-0.14525 -0.0797,-0.2641 -0.3765,-0.2641 -0.60045,0 -0.70422,-0.28377 -1.0643,-2.91042 -0.12967,-0.94589 -0.34594,-2.13908 -0.48061,-2.65155 -0.13467,-0.5125 -0.15904,-1.16734 -0.0542,-1.45521 0.10488,-0.28789 0.13708,-1.03714 0.0716,-1.66499 -0.0788,-0.75465 0.0185,-1.3516 0.28699,-1.76136 0.22337,-0.34092 0.54688,-1.19645 0.7189,-1.90119 0.17202,-0.70472 0.43161,-1.43304 0.57686,-1.61846 0.14525,-0.18542 0.1927,-0.40851 0.10544,-0.49577 -0.0873,-0.0873 0.0867,-0.63961 0.38658,-1.22743 0.29989,-0.5878 0.55651,-1.46603 0.57027,-1.9516 0.0138,-0.48559 0.10587,-0.88286 0.20467,-0.88286 0.17055,0 0.007,-2.4017 -0.17813,-2.61448 -0.0483,-0.0555 -0.80634,-0.0847 -1.68458,-0.0649 l -1.59681,0.0361 v -0.92734 c 0,-1.085 0.64739,-1.26994 1.39382,-0.39817 0.55021,0.6426 1.02281,0.66048 2.50435,0.0947 0.78124,-0.29837 1.18678,-0.62997 1.29429,-1.05833 0.0861,-0.34311 0.26976,-0.62384 0.40809,-0.62384 0.13833,0 0.18282,-0.11115 0.0989,-0.24701 -0.084,-0.13584 0.0263,-0.76092 0.24511,-1.38907 0.21878,-0.62812 0.39951,-1.6229 0.40163,-2.21059 0.002,-0.58769 0.24198,-1.53559 0.53302,-2.10645 0.29104,-0.57087 0.52917,-1.1447 0.52917,-1.27522 0,-0.55221 1.21451,-2.82582 1.50949,-2.82582 0.54948,0 1.39667,-1.11787 1.69577,-2.23759 0.15716,-0.58835 0.48254,-1.27235 0.72306,-1.52003 1.22786,-1.26439 1.81478,-2.54801 2.00898,-4.39372 0.57113,-5.42796 0.76239,-6.55238 1.16934,-6.87422 0.34562,-0.27334 0.36207,-0.38402 0.0827,-0.55666 -0.25163,-0.15552 -0.29315,-0.50241 -0.14918,-1.24634 0.18458,-0.95369 0.21374,-0.98134 0.38974,-0.36936 0.1803,0.6269 0.19161,0.61825 0.21661,-0.16537 0.061,-1.9114 0.29013,-2.39993 1.13704,-2.424 1.0897,-0.031 1.24248,-0.27268 0.51784,-0.81929 -0.5209,-0.3929 -0.58518,-0.60793 -0.42962,-1.43711 0.22561,-1.20261 0.4784,-1.23782 0.82648,-0.11517 0.16521,0.53287 0.22849,0.60833 0.16639,0.19844 -0.0551,-0.3638 -0.16212,-0.86982 -0.23778,-1.12448 -0.0998,-0.33602 0.0125,-0.46302 0.40944,-0.46302 0.36507,0 0.547,-0.17082 0.547,-0.51356 0,-0.28244 0.0992,-0.57486 0.22047,-0.64982 0.12126,-0.0749 0.1662,-0.50601 0.0999,-0.95792 -0.099,-0.67474 -0.0175,-0.84868 0.45595,-0.97248 0.36612,-0.0958 0.52281,-0.29083 0.4293,-0.53451 -0.081,-0.21105 -0.14726,-0.54432 -0.14726,-0.74057 0,-0.19626 -0.26789,-0.40843 -0.59531,-0.47151 l -0.59531,-0.11464 0.59531,-0.036 c 0.33677,-0.0204 0.59531,-0.20841 0.59531,-0.43291 0,-0.21828 0.11907,-0.39688 0.26459,-0.39688 0.14552,0 0.26458,-0.23812 0.26458,-0.52916 0,-0.29104 0.11906,-0.52917 0.26458,-0.52917 0.14552,0 0.26459,-0.23812 0.26459,-0.52917 0,-0.32165 0.17639,-0.52916 0.44979,-0.52916 0.34984,0 0.37923,-0.0706 0.13229,-0.3175 -0.4433,-0.44331 -0.40351,-2.04735 0.0551,-2.22335 0.20496,-0.0787 0.51706,-0.49165 0.69356,-0.91776 0.1765,-0.42608 0.41506,-0.77473 0.53013,-0.77473 0.11508,0 0.28969,-0.47625 0.38803,-1.05833 0.10149,-0.60068 0.32764,-1.05833 0.52298,-1.05833 0.36654,0 0.79185,-1.58872 0.69061,-2.57969 -0.0335,-0.32742 0.0668,-0.59531 0.22269,-0.59531 0.15593,0 0.28352,-0.23813 0.28352,-0.52917 0,-0.29104 0.1357,-0.52917 0.30156,-0.52917 0.36165,0 1.00115,-0.79343 1.01294,-1.25677 0.005,-0.1819 -0.22971,-0.33073 -0.52075,-0.33073 -0.29104,0 -0.52917,-0.11906 -0.52917,-0.26458 0,-0.14552 0.26859,-0.26458 0.59686,-0.26458 0.45545,0 0.73463,-0.30033 1.17835,-1.26754 0.31982,-0.69715 0.57932,-1.50083 0.57666,-1.78594 -0.003,-0.28512 0.40862,-2.25015 0.91396,-4.36674 0.50535,-2.11658 0.99422,-4.4383 1.08639,-5.15937 0.0922,-0.72107 0.27306,-1.72776 0.40198,-2.23708 0.23597,-0.93231 0.81172,-3.64747 0.98183,-4.63021 0.0504,-0.29104 0.0846,-1.03518 0.076,-1.65365 -0.009,-0.61846 0.0824,-1.12447 0.2021,-1.12447 0.11972,0 0.21109,-0.49411 0.20304,-1.098 -0.008,-0.60391 0.14611,-1.25875 0.34257,-1.45521 0.21751,-0.21751 0.24396,-0.35721 0.0676,-0.35721 -0.17136,0 -0.11265,-0.27003 0.14383,-0.66146 0.27407,-0.41828 0.32248,-0.66146 0.13167,-0.66146 -0.19956,0 -0.29665,-0.64958 -0.28672,-1.91823 0.0295,-3.77116 0.0226,-3.83672 -0.42406,-4.00812 -0.30439,-0.11678 -0.35281,-0.26148 -0.16495,-0.49292 0.14625,-0.18018 0.32018,-1.04198 0.38649,-1.9151 0.15181,-1.99861 0.20268,-2.17924 0.93117,-3.30642 0.32886,-0.50885 0.48631,-0.96237 0.3499,-1.00785 -0.33976,-0.11324 -0.0341,-1.93874 0.41088,-2.45343 0.19859,-0.22974 0.36108,-0.72874 0.36108,-1.10887 0,-0.38015 0.11906,-0.76475 0.26458,-0.85468 0.14552,-0.0899 0.26458,-0.57322 0.26458,-1.07395 0,-0.50075 0.11907,-0.91043 0.26459,-0.91043 0.14552,0 0.26458,-0.36422 0.26458,-0.80936 0,-0.4722 0.11022,-0.74126 0.26458,-0.64585 0.29911,0.18487 0.30415,-0.21918 0.0149,-1.19062 -0.13251,-0.445 -0.0672,-0.81299 0.19968,-1.12448 0.26321,-0.30726 0.29179,-0.46302 0.085,-0.46302 -0.21985,0 -0.2006,-0.17542 0.0653,-0.59531 0.53372,-0.84278 0.78388,-2.22803 0.44066,-2.44015 -0.3919,-0.24223 -1.34577,-2.15688 -1.16473,-2.33791 0.22736,-0.22736 -0.18511,-2.29955 -0.45774,-2.29955 -0.13273,0 -0.24133,0.17859 -0.24133,0.39688 0,0.48154 -0.62453,0.52271 -1.00341,0.0661 -0.19225,-0.23167 -0.16215,-0.5978 0.10053,-1.22251 0.30483,-0.72495 0.4451,-0.83357 0.74986,-0.58062 0.2959,0.24556 0.43167,0.21047 0.64435,-0.16656 0.30656,-0.54348 0.72268,-0.26755 0.87568,0.58063 0.13796,0.76486 0.57706,0.57729 0.87052,-0.37185 0.13923,-0.45032 0.34759,-0.81878 0.46302,-0.81878 0.56855,0 0.0795,-0.50159 -1.0469,-1.07373 -1.35876,-0.69016 -3.04681,-0.92816 -8.53281,-1.20303 -1.81901,-0.0911 -3.54542,-0.29832 -3.83646,-0.4604 -0.29104,-0.162087 -1.42214,-0.373728 -2.51354,-0.470327 -1.09141,-0.0966 -3.06749,-0.358061 -4.39129,-0.581025 -1.3238,-0.222964 -4.24083,-0.468445 -6.48229,-0.545518 -4.23095,-0.145494 -4.97007,-0.271145 -6.72875,-1.144032 -0.57794,-0.286835 -2.0033,-0.72943 -3.16747,-0.983535 -1.16416,-0.254133 -2.41432,-0.567214 -2.77812,-0.695775 -0.3638,-0.128561 -1.37583,-0.411798 -2.24896,-0.629418 -3.00414,-0.748771 -5.14899,-1.375039 -5.33038,-1.556438 -0.1,-0.09999 -0.40715,-0.181768 -0.68261,-0.181768 -0.43125,0 -4.12097,-1.591284 -5.58941,-2.410566 -0.26945,-0.150337 -1.20316,-0.388197 -2.07492,-0.528585 -0.87175,-0.140388 -2.02051,-0.419576 -2.5528,-0.620395 -0.53229,-0.200819 -1.9203,-0.683789 -3.08446,-1.073256 -1.16417,-0.389467 -3.18823,-1.237112 -4.49792,-1.883675 -1.30969,-0.646535 -2.53347,-1.171231 -2.71952,-1.165992 -0.18605,0.0053 -1.04586,-0.347636 -1.91069,-0.784198 -0.86482,-0.436563 -1.78416,-0.793803 -2.04297,-0.793883 -0.75899,-2.11e-4 -3.34277,-1.063413 -3.81747,-1.570858 -0.25228,-0.269663 -1.03389,-0.541575 -1.85208,-0.64426 -1.85266,-0.232542 -3.64724,-0.87249 -5.85648,-2.088436 -0.98728,-0.543401 -1.8502,-0.98798 -1.91762,-0.98798 -0.0674,0 -0.70144,-0.415872 -1.40895,-0.924164 -0.70751,-0.508317 -1.95645,-1.220522 -2.77543,-1.582711 -0.81898,-0.362188 -2.35374,-1.353873 -3.41059,-2.203741 -1.05684,-0.849841 -2.60669,-1.932622 -3.4441,-2.406147 -0.83741,-0.473525 -1.67085,-1.007401 -1.85208,-1.186392 -0.18124,-0.178964 -0.50811,-0.408861 -0.72639,-0.510831 -0.84814,-0.396293 -2.29281,-1.412637 -3.23651,-2.276951 -0.54315,-0.497443 -1.39768,-1.152287 -1.89895,-1.455209 -2.76305,-1.669626 -6.8495,-4.633912 -9.8135,-7.118641 -1.01865,-0.853943 -2.29857,-1.781731 -2.84427,-2.061792 -0.54571,-0.280035 -0.99219,-0.60161 -0.99219,-0.71456 0,-0.420529 -1.20971,-1.833537 -2.49493,-2.914201 -0.54449,-0.457861 -0.701,-0.787056 -0.60727,-1.277382 0.19543,-1.022297 -0.28099,-2.6983 -0.98188,-3.454191 -0.80285,-0.86583 -1.21289,-2.450825 -0.94329,-3.646212 0.11458,-0.508016 0.63777,-1.353106 1.16264,-1.877979 0.52487,-0.524872 0.95805,-1.091237 0.96263,-1.258585 0.0168,-0.616474 1.25525,-1.176116 3.56985,-1.613237 1.30623,-0.246687 2.63335,-0.574135 2.94915,-0.727665 0.81721,-0.397282 2.04208,-0.08239 4.3206,1.110761 2.87861,1.507384 2.86785,1.50278 4.94827,2.118183 1.04806,0.310025 2.17915,0.776827 2.51354,1.037336 0.91611,0.713703 2.23745,1.342226 2.82175,1.342226 0.28614,0 0.55995,0.0893 0.60845,0.198437 0.0485,0.109141 1.96715,1.140733 4.26365,2.292427 2.29651,1.151697 4.47553,2.372098 4.84228,2.711982 0.36675,0.339884 0.83665,0.617987 1.04421,0.617987 0.3466,0 2.89486,1.081538 3.82868,1.624965 0.21828,0.127027 0.69453,0.361871 1.05834,0.521891 0.3638,0.159994 0.84005,0.397986 1.05833,0.528876 0.21828,0.130863 0.81359,0.426138 1.32292,0.65614 0.50932,0.230002 1.64041,0.751919 2.51354,1.159828 2.11072,0.986075 2.99438,1.329134 3.42349,1.329134 0.19575,0 1.343,0.555096 2.54946,1.233567 1.20645,0.678471 2.98779,1.442085 3.95852,1.696958 0.97074,0.254847 2.58609,0.875401 3.58967,1.379009 1.00358,0.503607 2.65813,1.217295 3.67677,1.585991 1.01865,0.368671 2.39262,0.904452 3.05326,1.190626 0.66065,0.286173 1.61315,0.602535 2.11667,0.70305 1.13172,0.225928 4.69637,1.556306 6.47174,2.415329 0.72761,0.352054 2.51354,0.87802 3.96875,1.168797 3.4751,0.694372 5.09327,1.141598 6.19748,1.712859 0.49819,0.257758 1.74526,0.57404 2.77126,0.702866 1.02599,0.128826 2.67393,0.4894 3.66209,0.801264 1.425,0.449739 2.17814,0.535067 3.6409,0.412433 1.64207,-0.137663 1.88476,-0.09678 2.21375,0.372904 0.20321,0.290115 0.59196,0.519906 0.86388,0.510592 0.27191,-0.0093 0.73252,-0.02408 1.02356,-0.03265 0.94854,-0.02818 3.04271,0.631666 3.04271,0.958744 0,0.202459 0.41082,0.310753 1.12448,0.296413 0.61846,-0.01244 2.40892,0.132635 3.97879,0.322315 1.56988,0.189707 3.05453,0.268103 3.29923,0.174202 0.2447,-0.0939 0.3524,-0.07824 0.23933,0.03485 -0.28402,0.284003 4.11975,1.1226 5.96078,1.135089 0.82816,0.0056 1.57932,-0.10885 1.66926,-0.254371 0.26332,-0.426058 0.73307,-0.303662 0.56051,0.146024 -0.0867,0.225848 -0.0499,0.344064 0.0818,0.262705 0.13164,-0.08136 0.51723,-0.0453 0.85686,0.08014 0.33964,0.125465 1.13768,0.308557 1.77343,0.406929 0.94217,0.145759 1.12903,0.10877 1.0105,-0.200104 -0.0882,-0.229844 0.0558,-0.431589 0.3658,-0.512657 0.28118,-0.07353 0.44959,-0.03395 0.37425,0.08795 -0.0753,0.121894 -0.004,0.303583 0.15777,0.403781 0.20074,0.124063 0.2747,-0.144383 0.23192,-0.841613 -0.11351,-1.849755 10e-4,-3.045566 0.27572,-2.875862 0.14552,0.08993 0.27279,0.0672 0.28282,-0.05054 0.01,-0.117713 0.0628,-0.554381 0.1173,-0.970333 0.0754,-0.575257 -0.024,-0.788485 -0.41511,-0.890772 -0.50024,-0.13081 -0.74787,-1.131068 -0.28002,-1.131068 0.12878,0 0.43879,-0.312314 0.6889,-0.694028 0.25011,-0.381715 0.33598,-0.620634 0.19082,-0.530913 -0.1506,0.09305 -0.24759,-0.109273 -0.22588,-0.471223 0.0209,-0.348853 0.12735,-0.579173 0.23649,-0.511784 0.10914,0.06739 0.19843,0.0034 0.19843,-0.142081 0,-0.145521 -0.11938,-0.338349 -0.26529,-0.428546 -0.17735,-0.10959 -0.17735,-0.328295 0,-0.659659 0.35985,-0.672412 0.33596,-0.795099 -0.15484,-0.795099 -0.3471,0 -0.38775,-0.195448 -0.23386,-1.12448 0.10246,-0.618463 0.29702,-1.335299 0.43237,-1.592976 0.13535,-0.257652 0.16266,-0.603489 0.0607,-0.768483 -0.11929,-0.193013 -0.0664,-0.226404 0.1484,-0.09369 0.25225,0.155893 0.28189,0.05276 0.12133,-0.422142 -0.11686,-0.345626 -0.19023,-2.632578 -0.16304,-5.082091 0.0323,-2.906607 -0.0548,-4.648465 -0.25069,-5.014436 -0.19757,-0.369174 -0.20806,-0.591476 -0.0307,-0.650584 0.28838,-0.09612 0.22938,-3.301739 -0.0697,-3.785611 -0.0955,-0.154551 -0.10066,-0.571889 -0.0114,-0.927423 0.0892,-0.355531 0.0574,-0.64642 -0.0707,-0.64642 -0.12811,0 -0.17603,-0.297656 -0.10648,-0.661458 0.0953,-0.498615 0.0142,-0.661458 -0.32958,-0.661458 -0.33921,0 -0.40137,-0.118613 -0.24266,-0.463021 0.30067,-0.652449 0.2296,-5.426885 -0.0899,-6.040073 -0.15261,-0.292901 -0.18717,-1.095346 -0.0815,-1.893279 0.10084,-0.761701 0.0939,-1.529678 -0.0155,-1.70661 -0.10935,-0.176935 -0.15651,-1.132009 -0.1048,-2.122392 0.0663,-1.269585 -0.012,-1.906696 -0.26537,-2.160085 -0.26823,-0.268237 -0.28317,-0.435613 -0.0589,-0.6599 0.22429,-0.224287 0.21865,-0.696841 -0.0222,-1.863117 -0.18752,-0.907851 -0.25007,-2.181003 -0.1493,-3.038435 0.10978,-0.934035 0.0669,-1.604262 -0.11689,-1.825676 -0.35869,-0.432191 -0.4535,-2.145516 -0.18243,-3.296684 0.11479,-0.487469 0.0984,-0.859896 -0.0378,-0.859896 -0.13213,0 -0.22659,-0.311952 -0.2099,-0.69323 0.0167,-0.381275 -0.0641,-1.290634 -0.17951,-2.0208 -0.12986,-0.821502 -0.10589,-1.521854 0.0629,-1.837227 0.19125,-0.357357 0.18421,-0.616344 -0.0236,-0.866698 -0.16297,-0.196374 -0.28351,-0.873374 -0.26785,-1.50444 0.0536,-2.1618943 -0.28191,-3.3624518 -1.14209,-4.0862434 -0.54118,-0.4553743 -0.70293,-0.7395157 -0.49436,-0.8684181 0.17049,-0.1053729 0.49241,-0.80586 0.71537,-1.556639 0.33709,-1.1351076 0.36136,-1.908609 0.14406,-4.59183868 -0.14373,-1.77473512 -0.19982,-3.32629152 -0.12466,-3.44790992 0.2439,-0.3946419 -0.48989,-5.6230205 -0.90385,-6.4400989 -0.22118,-0.436562 -0.49028,-1.210469 -0.598,-1.719792 -0.10773,-0.509323 -0.43625,-1.580885 -0.73007,-2.38125 -0.29381,-0.800364 -0.59201,-1.931458 -0.66268,-2.513542 -0.21336,-1.757619 -1.21938,-5.991839 -1.7916,-7.540625 -0.29571,-0.800365 -0.60022,-1.871927 -0.67669,-2.38125 -0.0765,-0.509323 -0.37426,-1.580886 -0.66175,-2.38125 -0.28749,-0.800365 -0.86491,-2.46724 -1.28316,-3.704167 -1.30887,-3.870799 -1.52489,-4.376468 -2.61145,-6.113034 -0.58233,-0.930696 -1.43313,-2.763737 -1.89066,-4.073425 -0.45753,-1.309687 -1.37759,-3.452812 -2.04456,-4.7625 -0.66697,-1.309688 -1.36204,-2.738438 -1.54459,-3.175 -0.48396,-1.157386 -2.25318,-4.9607 -2.5231,-5.423959 -0.12718,-0.218281 -0.30512,-0.575468 -0.39541,-0.79375 -0.59925,-1.448739 -1.48058,-3.36917 -1.69992,-3.704167 -0.14291,-0.218281 -0.44943,-0.813593 -0.68114,-1.322916 -0.23171,-0.509323 -0.50552,-0.985573 -0.60846,-1.058334 -0.19514,-0.137932 -1.55307,-2.54019 -2.46777,-4.365625 -0.29167,-0.582083 -0.6043,-1.117864 -0.69472,-1.190625 -0.20878,-0.168013 -1.88253,-2.901791 -1.88253,-3.074805 0,-0.07108 -0.50508,-0.866838 -1.12239,-1.768359 -0.61732,-0.90152 -1.36146,-2.070179 -1.65365,-2.59702 -0.29219,-0.526838 -0.84033,-1.419807 -1.2181,-1.984375 -1.18453,-1.770274 -3.61132,-6.529851 -3.96344,-7.773358 -0.18544,-0.654844 -0.41895,-1.309688 -0.51893,-1.455209 -0.32383,-0.471344 -0.52733,-1.683615 -0.30562,-1.820635 0.1186,-0.0733 0.72319,0.92342 1.34355,2.214933 0.9459,1.969276 2.14691,3.867976 2.14691,3.394086 0,-0.07097 -0.41391,-0.979551 -0.91981,-2.019059 -0.5059,-1.039511 -0.97269,-2.160519 -1.03732,-2.491129 -0.14285,-0.73079 -1.71528,-3.643821 -1.9669,-3.643821 -0.0991,0 -0.34513,-0.386953 -0.5468,-0.859896 -0.20167,-0.472942 -0.6287,-1.217083 -0.94895,-1.653646 -0.55496,-0.756515 -0.89415,-2.359578 -1.00769,-4.7625 -0.0275,-0.582083 -0.11304,-1.117859 -0.19009,-1.190619 -0.33639,-0.31768 -0.79077,-1.67454 -0.79077,-2.36139 0,-0.41195 -0.17387,-1.16513 -0.38638,-1.67374 -0.21251,-0.50861 -0.32825,-0.98289 -0.25718,-1.05395 0.0711,-0.0711 0.009,-0.44599 -0.13845,-0.83318 -0.34677,-0.91205 0.0561,-5.03047 0.55062,-5.62922 0.40742,-0.49326 0.40273,-0.45787 0.4568,-3.44473 0.0238,-1.31248 0.16931,-2.30453 0.3699,-2.5213 0.1819,-0.19656 0.67328,-1.03951 1.09195,-1.87323 0.67525,-1.34466 0.86985,-1.53322 1.72313,-1.66966 1.09512,-0.17512 1.7034,-0.55889 1.95704,-1.23472 0.0964,-0.25685 0.50573,-0.5842 0.90964,-0.72745 0.40392,-0.14325 0.91298,-0.37987 1.13126,-0.52583 0.21828,-0.14595 0.69453,-0.38768 1.05834,-0.53717 0.3638,-0.14949 0.84005,-0.34915 1.05833,-0.44368 0.88479,-0.38318 3.17195,-0.5079 4.63021,-0.25249 3.24694,0.56869 4.00604,0.8718 5.07774,2.02757 1.55812,1.68033 2.53197,2.90487 2.89322,3.63802 0.23304,0.47294 0.58874,0.85989 0.79043,0.85989 0.2017,0 0.36673,0.15907 0.36673,0.35348 0,0.1944 0.48596,0.78972 1.0799,1.32291 0.59395,0.5332 0.98417,0.96945 0.86717,0.96945 -0.117,0 0.0526,0.18582 0.37682,0.41293 0.32425,0.22712 0.785,0.79267 1.02389,1.25677 0.23888,0.46411 0.64666,1.08196 0.90616,1.37301 1.31556,1.47544 2.19084,2.59455 1.88434,2.40927 -0.18921,-0.11438 0.19774,0.34946 0.85989,1.03076 0.66216,0.68131 1.20392,1.34074 1.20392,1.46541 0,0.12467 0.29542,0.54544 0.6565,0.93504 0.36107,0.38961 0.59988,0.79999 0.53068,0.91195 -0.0692,0.11197 0.0501,0.27108 0.26508,0.35358 0.2428,0.0932 0.32506,0.32157 0.21713,0.60282 -0.13385,0.34882 -0.0698,0.41292 0.27906,0.27906 0.30123,-0.11559 0.50071,-0.0202 0.59586,0.2848 0.32555,1.04369 1.28555,3.01775 1.54988,3.18702 0.54761,0.35068 1.0863,1.51216 1.06273,2.29138 -0.0217,0.717688 0.21964,1.177356 1.11387,2.121469 0.17472,0.184465 0.39626,0.648552 0.49233,1.031309 0.0961,0.382757 0.28054,0.761352 0.40994,0.841327 0.1294,0.07997 0.23527,0.327652 0.23527,0.5504 0,0.455197 1.0146,1.393568 1.52135,1.407057 0.18191,0.0048 0.34285,0.157631 0.35766,0.339532 0.0148,0.181901 0.0666,1.09098 0.11517,2.020173 0.0485,0.929195 0.21502,1.816211 0.36995,1.971146 0.15494,0.154937 0.2817,0.48751 0.2817,0.739052 0,0.251545 0.15052,0.614686 0.33448,0.80698 0.43312,0.452731 1.9305,3.330374 2.17824,4.186087 0.10532,0.363802 0.53207,1.020725 0.94832,1.45983 0.41626,0.439103 0.79706,1.034415 0.84623,1.322917 0.10951,0.642562 1.15729,2.690521 1.44035,2.815241 0.11303,0.04981 0.54569,0.77166 0.96147,1.604124 0.41579,0.832463 0.98133,1.773417 1.25677,2.091004 0.27545,0.31759 0.50081,0.737812 0.50081,0.933826 0,0.196014 0.11906,0.356391 0.26458,0.356391 0.14552,0 0.26459,0.27577 0.26459,0.612826 0,0.337052 0.78033,2.152756 1.73408,4.034896 1.61185,3.180836 3.54029,7.922564 3.97427,9.772071 0.10244,0.436562 0.53662,1.567656 0.96485,2.513541 0.91212,2.014715 1.70865,4.238133 2.7014,7.540626 0.3937,1.309687 0.94579,2.890451 1.22686,3.512807 0.28107,0.622355 0.51104,1.302326 0.51104,1.511048 0,0.20872 0.22183,0.592487 0.49295,0.852816 0.27112,0.260331 0.57411,0.830517 0.6733,1.267079 0.31114,1.369375 0.61566,2.58027 1.16443,4.630209 0.29217,1.091406 0.61376,2.520156 0.71464,3.175 0.10087,0.654843 0.3994,2.024062 0.66339,3.042708 0.26399,1.018646 0.62093,2.685521 0.79319,3.704167 0.17226,1.018646 0.6739,2.983177 1.11476,4.365625 0.44086,1.382448 0.95702,3.704167 1.14702,5.159375 0.67705,5.185355 0.89479,6.387894 1.70067,9.3927092 0.44882,1.6734896 0.88905,4.029054 0.97828,5.234591 0.0892,1.2055343 0.26333,2.25435853 0.38689,2.33071728 0.12355,0.0763614 0.22887,0.93548469 0.23403,1.90916202 0.005,0.9736773 0.18271,2.8418844 0.39456,4.1515719 0.46585,2.8800321 0.83529,11.8431426 1.05237,25.5322926 0.0888,5.602553 0.22042,11.734272 0.2924,13.626042 0.14194,3.730657 0.11262,12.801204 -0.0564,17.462501 -0.18114,4.994143 -0.14208,8.609172 0.13006,12.038542 0.14434,1.819011 0.26962,3.328168 0.27839,3.3537 0.009,0.0254 2.54602,0.0254 5.63834,0 4.08722,-0.03373 5.78019,0.0439 6.20031,0.284321 0.37652,0.215477 1.80566,0.338508 4.10104,0.35306 1.93772,0.01217 4.2375,0.112501 5.11062,0.222753 1.90424,0.240401 16.06109,-0.369279 18.12396,-0.780547 0.80037,-0.159544 1.8124,-0.393727 2.24896,-0.520356 0.43656,-0.126656 1.74625,-0.30652 2.91042,-0.399706 1.16416,-0.09319 3.42635,-0.336735 5.02708,-0.541232 1.60073,-0.204496 3.08901,-0.355917 3.30729,-0.336471 0.21828,0.01958 0.77699,0.01667 1.24158,-0.0063 0.69251,-0.03416 0.82635,-0.137001 0.7428,-0.570838 -0.10831,-0.562372 0.19113,-0.637223 1.05833,-0.264584 0.31253,0.134303 0.37572,0.235003 0.15434,0.245984 -0.20615,0.01032 -0.30229,0.09115 -0.21363,0.179784 0.21,0.210026 1.77908,-0.484399 1.77908,-0.787347 0,-0.127794 0.14883,-0.113665 0.33073,0.03146 0.18727,0.149384 0.84718,0.189256 1.52136,0.09194 1.09359,-0.157877 1.14749,-0.199946 0.66146,-0.515991 -0.41257,-0.268287 -0.42651,-0.312155 -0.0633,-0.199046 0.70555,0.219684 1.94614,-0.103531 2.54741,-0.663681 0.29503,-0.274875 0.70308,-0.499771 0.90677,-0.499771 0.22177,0 0.46638,-0.451141 0.60971,-1.124479 0.2038,-0.957395 0.33717,-1.12448 0.89749,-1.12448 1.29773,0 1.7772,-0.753824 0.65812,-1.034679 -0.76804,-0.192776 -0.86508,-0.583618 -0.19843,-0.799174 0.427,-0.138086 1.12448,-1.263571 1.12448,-1.814513 0,-0.129566 -0.25663,-0.443362 -0.57027,-0.697336 -0.50635,-0.410025 -0.53653,-0.558562 -0.26925,-1.325298 0.20083,-0.576077 0.21521,-1.023831 0.0432,-1.345221 -0.18143,-0.33901 -0.16046,-0.528108 0.0708,-0.638281 0.18074,-0.08612 0.0539,-0.105092 -0.28182,-0.04217 -0.50287,0.09427 -0.55544,0.04815 -0.29834,-0.261647 0.23363,-0.28149 0.23509,-0.376052 0.006,-0.376052 -0.22972,0 -0.23153,-0.1397 -0.007,-0.558827 0.16449,-0.30734 0.24191,-0.857858 0.17204,-1.223354 -0.092,-0.481171 0.002,-0.698288 0.34096,-0.786923 0.30957,-0.08094 0.42317,-0.293767 0.33558,-0.62873 -0.0728,-0.278474 -0.21986,-0.506333 -0.32675,-0.506333 -0.10689,0 -0.20128,-1.330325 -0.20977,-2.956295 -0.0119,-2.286927 0.0806,-3.102902 0.40893,-3.603943 0.39558,-0.603726 0.39053,-0.672412 -0.0745,-1.012455 -0.47976,-0.350811 -0.47666,-0.364807 0.0808,-0.364807 0.31885,0 0.57973,-0.119063 0.57973,-0.264584 0,-0.14552 -0.10852,-0.264583 -0.24117,-0.264583 -0.13264,0 -0.21129,-0.148828 -0.17478,-0.330729 0.0365,-0.181901 0.15983,-0.785416 0.27403,-1.341133 0.17892,-0.870628 0.12777,-1.066351 -0.36973,-1.414818 -0.53333,-0.373554 -0.54315,-0.429439 -0.12875,-0.732459 0.24675,-0.180424 0.38905,-0.496258 0.31624,-0.701849 -0.0728,-0.205592 0.0436,-0.721953 0.25878,-1.147467 0.4885,-0.966113 0.65496,-2.533629 0.26906,-2.533629 -0.16356,0 -0.11758,-0.197934 0.10756,-0.46302 0.54883,-0.646195 0.42285,-3.105338 -0.194,-3.786953 -0.52153,-0.576283 -0.49895,-0.634706 0.34578,-0.894363 0.40048,-0.1231 0.59532,-0.07324 0.59532,0.152339 0,0.539547 0.44151,-0.08535 0.63233,-0.894982 0.12956,-0.54969 0.0732,-0.727604 -0.23042,-0.727604 -0.50944,0 -0.51549,-0.542452 -0.0134,-1.206201 0.52869,-0.699019 0.49992,-0.910466 -0.1239,-0.910466 -0.29104,0 -0.52916,-0.119063 -0.52916,-0.264583 0,-0.252889 0.17071,-0.312793 1.05833,-0.371377 0.21828,-0.01442 0.39687,-0.204632 0.39687,-0.422723 0,-0.218088 -0.12411,-0.374999 -0.2758,-0.348689 -0.15169,0.0263 -0.29455,-0.201102 -0.31747,-0.505359 -0.0229,-0.304258 -0.16687,-0.630574 -0.31989,-0.725144 -0.17718,-0.109503 -0.0989,-0.364421 0.21554,-0.701934 0.93615,-1.004845 1.04203,-1.562957 1.06492,-5.613591 0.0225,-3.972433 0.46628,-7.843795 1.20302,-10.493476 0.40612,-1.46064 0.81085,-4.6302084 0.59123,-4.6302084 -0.0767,0 -0.33412,0.1947519 -0.57216,0.4327814 -0.31041,0.310412 -0.51373,0.35183 -0.71908,0.146481 -0.20535,-0.205348 -0.0204,-0.4130961 0.65403,-0.7347157 0.81942,-0.3907552 0.96366,-0.6052053 1.12182,-1.6678329 0.0998,-0.6706817 0.27416,-1.3384848 0.38742,-1.4840056 0.11326,-0.1455209 0.28523,-1.1004842 0.38216,-2.1221437 0.15701,-1.6550138 0.11631,-1.9218725 -0.37329,-2.4473959 -0.53074,-0.5696797 -0.53205,-0.5898356 -0.0384,-0.5898356 0.61723,0 0.82414,-0.45288206 0.64207,-1.40534242 -0.0847,-0.44294691 0.0475,-0.98442198 0.3511,-1.43843908 0.34754,-0.5196999 0.48887,-1.2276218 0.49378,-2.4733675 0.004,-1.0743115 0.14538,-1.9121597 0.36715,-2.1793756 0.22305,-0.2687611 0.29429,-0.6969919 0.18704,-1.1243073 -0.0953,-0.3796109 -0.0638,-0.8276405 0.0699,-0.9956218 0.1337,-0.1679813 0.30187,-1.7341719 0.3737,-3.4804219 0.11301,-2.747248 0.2617,-3.567105 1.10362,-6.085417 0.53516,-1.600729 1.08326,-3.771104 1.218,-4.823053 0.31778,-2.481067 0.80864,-4.087127 3.3374,-10.919656 0.51165,-1.382448 1.09461,-3.084378 1.29547,-3.782068 0.20085,-0.697688 0.6596,-2.126438 1.01943,-3.175 0.35984,-1.04856 0.73474,-2.799443 0.83313,-3.890849 0.12813,-1.42136 0.35876,-2.264273 0.81287,-2.97089 0.3487,-0.542584 0.63399,-1.15774 0.63399,-1.367015 0,-0.209275 0.10887,-0.420185 0.24194,-0.468693 0.13306,-0.04851 0.30111,-0.665986 0.37344,-1.372175 0.0904,-0.882988 0.33857,-1.502714 0.79453,-1.984375 0.43279,-0.457187 0.72849,-1.159769 0.85154,-2.023311 0.10368,-0.727604 0.35165,-1.644425 0.55103,-2.037382 0.19939,-0.392956 0.36252,-0.976399 0.36252,-1.296545 0,-0.607547 1.22814,-3.323143 1.6095,-3.558837 0.12071,-0.0746 0.15241,-0.310422 0.0704,-0.524044 -0.082,-0.213619 -0.0412,-0.388401 0.0907,-0.388401 0.35752,0 0.96078,-1.856459 0.92371,-2.842614 -0.0227,-0.60406 0.0863,-0.861552 0.36473,-0.861552 0.21842,0 0.47691,-0.20836 0.57444,-0.463021 0.0975,-0.254662 0.45097,-0.86659 0.78545,-1.35984 0.34901,-0.514694 0.61171,-1.303845 0.61654,-1.852083 0.005,-0.525396 0.18322,-1.186381 0.39688,-1.468856 0.21365,-0.282474 0.39107,-0.818255 0.39427,-1.190625 0.003,-0.372369 0.25678,-1.212815 0.56352,-1.867659 0.30674,-0.654844 0.58694,-1.785938 0.62265,-2.513542 0.078,-1.589712 0.36911,-2.778125 0.68048,-2.778125 0.12518,0 0.15824,-0.180732 0.0735,-0.401627 -0.17025,-0.443645 0.38099,-2.005976 0.81025,-2.296427 0.14996,-0.101481 0.27945,-0.399137 0.28771,-0.661459 0.0346,-1.097827 0.51146,-2.608424 1.09479,-3.468013 0.34308,-0.505579 0.62381,-1.140745 0.62381,-1.41148 0,-0.270735 0.0953,-0.492244 0.21185,-0.492244 0.41981,0 1.37565,-2.419078 1.37565,-3.481579 0,-0.597394 0.21793,-1.457412 0.48432,-1.911151 0.26638,-0.453737 0.69757,-1.539354 0.95821,-2.412479 0.26064,-0.873125 0.62212,-1.945164 0.80328,-2.382311 0.18116,-0.437145 0.41428,-1.181285 0.51802,-1.653647 0.10375,-0.47236 0.33404,-0.85883 0.51176,-0.85883 0.17772,0 0.58759,-0.54437 0.91086,-1.2097 0.32324,-0.66533 1.04788,-1.82619 1.6103,-2.57969 0.56245,-0.75349 1.34268,-2.05522 1.73384,-2.89271 0.62048,-1.32844 2.50391,-4.03622 3.08616,-4.43691 0.11094,-0.0764 0.31363,-0.63695 0.45042,-1.2458 0.25377,-1.12944 1.80724,-3.49629 2.7096,-4.12833 0.27512,-0.19269 0.67935,-0.77914 0.89831,-1.30322 0.219,-0.52408 0.51142,-1.02289 0.64987,-1.10845 0.41572,-0.25693 2.65904,-3.7484 2.95633,-4.60117 0.15208,-0.4363 0.43494,-0.85405 0.62854,-0.92835 0.1936,-0.0743 0.80449,-0.82798 1.3575,-1.67486 0.553,-0.84687 1.27926,-1.8239 1.61388,-2.17117 0.33462,-0.34726 0.60838,-0.72657 0.60838,-0.8429 0,-0.11633 0.92273,-0.95825 2.05052,-1.87094 1.12779,-0.91269 2.81189,-2.34908 3.74243,-3.19199 0.93056,-0.84291 1.80348,-1.53257 1.93987,-1.53257 0.13636,0 0.92998,-0.39974 1.76361,-0.88831 1.56815,-0.91907 4.19274,-1.62846 7.14827,-1.93208 1.80962,-0.1859 2.66988,-0.72642 2.66988,-1.67752 0,-0.62433 0.33557,-0.68436 0.78674,-0.14075 0.1773,0.21363 0.40024,0.37119 0.49541,0.35013 0.32551,-0.072 2.38088,0.59335 2.46769,0.79883 0.0477,0.1128 0.56158,0.38304 1.14207,0.60052 0.7778,0.29141 1.11877,0.60163 1.29614,1.17929 0.13237,0.43112 0.42656,1.20057 0.65371,1.70989 0.22717,0.50933 0.37483,1.04511 0.32816,1.19063 -0.20024,0.62419 -0.21524,1.87295 -0.0254,2.11667 0.11332,0.14552 0.28226,0.80036 0.37542,1.4552 0.0932,0.65485 0.29641,2.0836 0.45167,3.175 0.48628,3.4183 0.225,5.8947 -0.82352,7.80521 -2.20305,4.01424 -2.8684,5.37978 -3.01741,6.19281 -0.27194,1.48372 -7.23374,12.5845 -8.94215,14.25852 -0.40153,0.39343 -0.73335,0.861021 -0.73739,1.039077 -0.004,0.178054 -0.4109,1.130554 -0.90411,2.116667 -2.26992,4.538411 -3.81551,7.499009 -4.08337,7.821766 -0.43744,0.527082 -2.95738,5.65662 -2.95738,6.019981 0,0.173243 -0.28091,0.866883 -0.62426,1.54142 -0.34335,0.674537 -0.77396,1.583618 -0.95692,2.020181 -0.18296,0.436562 -0.43886,1.002168 -0.56867,1.256898 -0.49313,0.967594 -1.52601,3.911468 -1.93936,5.527495 -0.23665,0.925251 -0.73229,2.118659 -1.10139,2.652022 -0.36912,0.533361 -0.63828,1.188204 -0.59819,1.455209 0.0401,0.267001 -0.12928,0.8665 -0.37643,1.332216 -0.24714,0.465717 -0.44936,1.039829 -0.44936,1.275803 0,0.235974 -0.28599,0.926497 -0.63553,1.534493 -0.34952,0.607997 -0.72046,1.522167 -0.82429,2.03149 -0.10384,0.509323 -0.34297,1.223698 -0.53141,1.5875 -0.76052,1.468181 -1.14737,2.576941 -1.32906,3.809219 -0.10509,0.712624 -0.35277,1.605593 -0.55041,1.984376 -0.19767,0.378782 -0.36012,1.017415 -0.361,1.419185 0,0.401767 -0.22918,1.235205 -0.50726,1.852083 -0.2781,0.616876 -0.58113,1.56808 -0.67344,2.113783 -0.0923,0.545703 -0.27035,0.992188 -0.39566,0.992188 -0.1253,0 -0.16907,0.224686 -0.0973,0.499305 0.0718,0.274619 0,0.579303 -0.15706,0.677075 -0.15819,0.09777 -0.28762,0.527928 -0.28762,0.955902 0,0.427974 -0.11907,0.778134 -0.26459,0.778134 -0.38886,0 -0.32326,0.792705 0.0661,0.799635 0.1819,0.0032 0.069,0.211595 -0.25098,0.463021 -0.70549,0.554386 -1.13808,1.636408 -1.13808,2.846633 0,0.494914 -0.16158,1.290834 -0.35904,1.768714 -0.56433,1.365583 -1.49305,4.365056 -1.49305,4.822023 0,0.227917 -0.23812,0.858682 -0.52916,1.401704 -0.29105,0.543021 -0.52917,1.354416 -0.52917,1.803102 0,1.172405 -0.73258,3.471283 -1.48704,4.666435 -0.35679,0.565171 -0.58108,1.136978 -0.49845,1.27068 0.0826,0.133702 -0.0526,0.69482 -0.30048,1.246928 -0.24792,0.552109 -0.49575,1.475039 -0.55079,2.050958 -0.055,0.575916 -0.19658,1.171228 -0.31459,1.322916 -0.118,0.151686 -0.22648,0.692513 -0.24108,1.201836 -0.0491,1.712881 -0.2942,3.623556 -0.55161,4.300601 -0.14052,0.369639 -0.17399,0.753581 -0.0744,0.853202 0.0996,0.09962 -0.0315,0.336608 -0.29139,0.52664 -0.2599,0.190032 -0.44802,0.448188 -0.41807,0.57368 0.11655,0.48854 -0.37652,2.230221 -0.68365,2.414704 -0.42977,0.258149 -0.93848,1.787422 -0.93848,2.8211598 0,1.0592462 -0.65971,2.0026181 -1.40406,2.0078145 -1.20735,0.00844 -1.45275,0.5734976 -2.41128,5.5521995 -0.46096,2.39433371 -1.32969,6.5013075 -1.79094,8.466667 -0.66379,2.8285044 -0.78092,3.4038572 -1.0504,5.1593752 -0.40457,2.635763 -0.51332,7.85167 -0.17224,8.262639 0.15354,0.184975 0.19044,0.33632 0.082,0.33632 -0.1084,0 -0.062,0.162795 0.10317,0.36177 0.22836,0.275169 0.20444,0.441267 -0.0999,0.693856 -0.22008,0.182645 -0.40013,0.487596 -0.40013,0.677665 0,0.190068 -0.18285,0.528423 -0.40632,0.751903 -0.45093,0.450935 -0.46691,0.672118 -0.082,1.135915 0.17127,0.206353 0.16823,0.486164 -0.009,0.817118 -0.14814,0.276817 -0.19717,0.779295 -0.10896,1.116621 0.11145,0.426241 0.067,0.555582 -0.14589,0.424034 -0.20148,-0.124523 -0.30625,0.04236 -0.30625,0.487794 0,0.37239 0.11906,0.677074 0.26458,0.677074 0.40172,0 0.3161,1.573787 -0.10874,1.99862 -0.39309,0.393094 -0.27313,1.439503 0.20082,1.751526 0.18277,0.120333 0.17729,0.292317 -0.0169,0.529167 -0.34279,0.418253 -0.87511,3.682233 -0.6591,4.041489 0.27196,0.452353 0.15814,1.68678 -0.19473,2.111968 -0.32453,0.391033 -0.29493,0.938038 0.13131,2.426224 0.0998,0.348538 -0.0122,0.727229 -0.30022,1.015291 -0.27414,0.274137 -0.44588,0.819774 -0.42584,1.352936 0.0185,0.491432 -0.13114,1.360438 -0.3325,1.931123 -0.31193,0.884129 -0.31177,1.142304 0.001,1.745422 0.48999,0.944441 0.22728,3.053212 -0.38178,3.064695 -0.37067,0.0069 -0.36592,0.04366 0.036,0.277733 0.51806,0.301731 0.60983,1.049073 0.18143,1.477486 -0.19907,0.199073 -0.15342,0.409761 0.15574,0.718926 0.40672,0.406718 0.39865,0.502894 -0.11528,1.373955 -1.04185,1.765803 -0.61773,4.610524 0.68739,4.610524 0.3411,0 0.37969,0.250931 0.23404,1.521354 -0.12353,1.07741 -0.095,1.405546 0.0977,1.124479 0.2215,-0.322977 0.27293,-0.279135 0.27624,0.235426 0.003,0.347742 -0.19275,0.776182 -0.43331,0.952077 -0.38754,0.283369 -0.34233,0.361871 0.39688,0.689081 0.96893,0.42889 1.10161,1.020048 0.23891,1.064525 -0.42179,0.0217 -0.46509,0.06506 -0.14856,0.148563 0.24572,0.06482 0.49739,0.378434 0.55928,0.696913 0.0937,0.482309 0.11856,0.458867 0.14856,-0.140256 0.0285,-0.569727 0.13232,-0.682546 0.49906,-0.542528 0.72109,0.275299 1.56636,1.129533 1.11768,1.129533 -0.3034,0 -0.29705,0.07414 0.0348,0.40595 0.44575,0.445717 2.47989,0.624628 3.21318,0.282575 0.33848,-0.157877 0.46302,-0.101627 0.46302,0.209206 0,0.248788 -0.21952,0.425185 -0.52916,0.425185 -0.75449,0 -0.65575,0.443283 0.13229,0.593937 0.51392,0.09824 0.66146,0.01667 0.66146,-0.366051 0,-0.270854 0.14115,-0.492469 0.31366,-0.492469 0.17253,0 0.58925,-0.258868 0.92604,-0.575283 0.33682,-0.316416 0.61238,-0.443601 0.61238,-0.282628 0,0.16129 0.32658,0.258524 0.7276,0.21664 0.565,-0.05903 0.74631,-0.232383 0.81132,-0.775705 0.0692,-0.578512 0.21818,-0.699691 0.8599,-0.699691 0.6147,0 0.77618,0.116814 0.77618,0.561552 0,0.470376 0.0648,0.507815 0.39878,0.230611 0.33586,-0.278739 0.44373,-0.202062 0.68358,0.48596 0.15663,0.449316 0.48321,0.872622 0.7257,0.9407 1.46621,0.411612 2.74899,0.432064 3.92303,0.06257 1.91881,-0.603885 3.17558,-0.881327 5.5137,-1.217242 1.16417,-0.167244 2.95011,-0.523002 3.96875,-0.790576 1.01865,-0.267546 2.80458,-0.689027 3.96875,-0.936598 1.16417,-0.247571 2.83104,-0.666433 3.70417,-0.930831 0.87312,-0.264398 2.24234,-0.615632 3.04271,-0.780494 0.80036,-0.164862 1.93145,-0.399865 2.51354,-0.522235 0.58208,-0.12237 1.71318,-0.486621 2.51354,-0.809466 0.80036,-0.322845 1.8124,-0.641006 2.24896,-0.70702 1.84213,-0.2785 4.19645,-0.947684 5.3635,-1.524502 1.38205,-0.683102 3.52441,-1.326172 5.35212,-1.606551 1.38033,-0.211746 6.49735,-1.871662 7.27604,-2.360268 0.68943,-0.43262 13.09717,-4.647698 13.68121,-4.647698 0.24604,0 2.14998,-0.488458 4.23098,-1.085461 4.12538,-1.183502 5.6425,-1.244121 8.36554,-0.334261 1.14726,0.383334 1.6486,0.585592 3.92475,1.583394 0.45858,0.20103 0.96459,0.365495 1.12448,0.365495 0.15992,0 0.29075,0.119063 0.29075,0.264583 0,0.145521 0.23599,0.500566 0.52443,0.789014 0.43797,0.437965 0.47813,0.645134 0.24369,1.256771 -0.15439,0.402775 -0.38968,1.776704 -0.52285,3.053133 -0.25918,2.484359 -0.95176,4.220634 -2.31568,5.805382 -0.41167,0.478314 -1.1937,1.548765 -1.73789,2.37879 -1.16039,1.769904 -4.1352,4.616291 -5.91413,5.658802 -0.68762,0.402987 -1.4305,0.936943 -1.65087,1.186577 -0.22037,0.249661 -1.82223,1.297702 -3.55973,2.329022 -2.31404,1.373505 -4.04804,2.167784 -6.48229,2.96926 -1.82777,0.601821 -4.35097,1.556358 -5.60713,2.121217 -1.25613,0.564859 -2.36389,1.027034 -2.46166,1.027034 -0.0978,0 -1.3917,0.579649 -2.87546,1.288097 -3.74814,1.789668 -12.89698,4.422193 -19.85865,5.71418 -0.9983,0.185288 -1.89126,0.452173 -1.98437,0.593117 -0.21564,0.32639 -1.41139,0.639498 -1.21238,0.31742 0.21874,-0.353906 -0.1788,-0.298264 -2.04218,0.285856 -0.92247,0.289163 -2.06579,0.527288 -2.54072,0.529167 -0.8296,0.0032 -1.06045,0.07678 -2.37405,0.755862 -0.32546,0.168222 -1.00303,0.305884 -1.50574,0.305884 -0.50271,0 -0.9888,0.120994 -1.08022,0.268896 -0.0914,0.147903 -0.26453,0.208122 -0.38475,0.133827 -0.12023,-0.07432 -0.28647,0.0418 -0.36944,0.258048 -0.083,0.216244 -0.42289,0.391107 -0.75533,0.38862 -1.24347,-0.0093 -3.88573,0.229605 -4.42196,0.399785 -0.3057,0.09705 -0.49366,0.276993 -0.4177,0.399918 0.076,0.122899 -0.40417,0.223467 -1.06696,0.223467 -0.6628,0 -1.34948,0.119856 -1.52598,0.26633 -0.1765,0.1465 -1.0341,0.348297 -1.90577,0.448468 -0.87167,0.100172 -1.62454,0.287894 -1.67304,0.417169 -0.0485,0.129275 -0.27725,0.235056 -0.50834,0.235056 -0.23109,0 -0.64069,0.199602 -0.91025,0.443547 -0.37571,0.340016 -0.56274,0.370893 -0.80134,0.132292 -0.43611,-0.436113 -0.99917,-0.387853 -0.99917,0.08562 0,0.218282 -0.21432,0.396875 -0.47625,0.396875 -0.26194,0 -0.59926,0.123005 -0.74959,0.273341 -0.15037,0.150363 -0.85879,0.284083 -1.57428,0.297154 -0.81438,0.01482 -1.56358,0.20955 -2.00324,0.520409 -0.38626,0.273129 -1.12048,0.496596 -1.63157,0.496596 -0.51113,0 -0.96899,0.110702 -1.01751,0.24601 -0.0485,0.135308 -1.13237,0.427408 -2.40861,0.649129 -1.27622,0.221721 -2.44845,0.482256 -2.60498,0.578987 -0.17285,0.106813 -0.21717,0.553138 -0.11287,1.136809 0.0944,0.528532 0.23791,1.556253 0.31885,2.283857 0.0809,0.72761 0.28294,1.42153 0.44891,1.54207 0.1736,0.12608 -0.0286,0.16566 -0.47614,0.0932 -0.76737,-0.12423 -0.77031,-0.12002 -0.21823,0.31001 0.30782,0.23979 0.59833,0.67408 0.64561,0.96512 0.0473,0.29104 0.23477,0.68649 0.41667,0.87879 0.43238,0.45709 0.42489,0.93374 -0.0119,0.7661 -0.39523,-0.15169 -0.55073,0.77578 -0.16957,1.01134 0.13626,0.0842 0.24776,0.56282 0.24776,1.06355 0,0.66489 0.11623,0.91043 0.43095,0.91043 0.3633,0 0.40383,0.20463 0.25807,1.30328 -0.10533,0.79415 -0.067,1.36872 0.0982,1.47082 0.14909,0.0922 0.27289,0.54748 0.27508,1.01182 0.003,0.46437 0.16965,1.32038 0.37214,1.90228 0.20251,0.58189 0.27826,1.11767 0.16833,1.19062 -0.23847,0.15827 -0.26252,1.05868 -0.0282,1.05868 0.32655,0 1.0968,1.59673 0.91337,1.89352 -0.11663,0.18872 -0.072,0.23296 0.11702,0.11612 0.20773,-0.1284 0.30546,0.0955 0.30546,0.69996 0,0.48879 0.12332,1.01205 0.27406,1.16279 0.1507,0.1507 0.28218,0.95641 0.29215,1.79043 0.0127,1.06884 0.11224,1.48027 0.33703,1.39399 0.30824,-0.11827 0.34332,1.33149 0.0507,2.09412 -0.0648,0.16899 0.17251,0.46268 0.52748,0.65265 0.40859,0.21868 0.53644,0.41275 0.34843,0.52893 -0.40365,0.24947 0.1016,1.17557 0.94165,1.72601 0.62206,0.40756 0.6499,1.07452 0.0613,1.46986 -0.26292,0.17661 0.11417,1.09056 0.43214,1.04741 0.0961,-0.013 0.16275,0.0656 0.1482,0.17473 -0.0145,0.10914 -0.12084,0.17293 -0.2362,0.14176 -0.38266,-0.10342 -0.4836,0.94433 -0.10498,1.08961 0.20219,0.0776 0.36764,0.31348 0.36764,0.52419 0,0.21072 0.32742,0.62741 0.7276,0.92597 0.40018,0.29858 0.57878,0.54662 0.39687,0.55123 -0.1819,0.005 -0.33072,0.13546 -0.33072,0.2908 0,0.16611 0.24518,0.21344 0.59531,0.11496 0.44873,-0.12623 0.50017,-0.10202 0.20897,0.0983 -0.33629,0.23132 -0.33182,0.32787 0.0345,0.74496 0.27774,0.31617 0.35132,0.65915 0.21633,1.00832 -0.18759,0.4852 -0.22029,0.4907 -0.3936,0.0661 -0.10393,-0.25466 -0.44413,-0.45873 -0.75599,-0.4535 -0.54139,0.009 -0.53544,0.036 0.13174,0.59532 0.3843,0.32218 0.7807,0.97274 0.8809,1.44568 0.10022,0.47294 0.29882,0.8599 0.44138,0.8599 0.14253,0 0.19166,0.10922 0.10919,0.24267 -0.0825,0.13348 0.13264,0.80023 0.47805,1.48167 0.48326,0.95334 0.59711,1.51368 0.49377,2.43051 -0.0914,0.81061 -0.0254,1.25889 0.20666,1.40227 0.26146,0.16158 0.27829,0.45778 0.0721,1.26987 -0.15203,0.59893 -0.17068,1.21398 -0.0429,1.41554 0.18309,0.28893 0.22815,0.28126 0.23797,-0.0404 0.0289,-0.94832 0.7557,1.32556 0.82383,2.57752 0.006,0.11033 0.13444,0.34943 0.28541,0.53133 0.19521,0.23524 0.17687,0.33073 -0.0635,0.33073 -0.23786,0 -0.20826,0.14335 0.0999,0.48385 0.24085,0.26611 0.43788,0.63508 0.43788,0.81991 0,0.18484 0.19238,0.74145 0.42749,1.2369 0.23511,0.49549 0.36531,1.13856 0.28935,1.42907 -0.076,0.29049 -0.0387,0.52819 0.0829,0.52819 0.12157,0 0.36023,0.67037 0.53033,1.48971 0.25236,1.21568 0.24365,1.5313 -0.0474,1.71574 -0.31871,0.20199 -0.13689,0.34081 0.3547,0.27088 0.10023,-0.0143 0.13621,0.21294 0.08,0.50491 -0.0562,0.29194 -0.007,0.47183 0.10982,0.39976 0.26837,-0.16587 0.81561,1.01261 0.82799,1.78302 0.005,0.32057 0.17955,0.88051 0.38751,1.24431 0.20796,0.36381 0.38235,1.02606 0.38751,1.47167 0.005,0.44561 0.24749,1.30305 0.53853,1.90545 0.29104,0.60238 0.52917,1.26045 0.52917,1.46238 0,0.39441 1.42343,1.79165 2.30693,2.26446 0.58444,0.31279 0.89085,1.35078 0.65966,2.23478 -0.14042,0.537 -0.15153,0.53827 -0.34661,0.0398 -0.18825,-0.48099 -0.20277,-0.47657 -0.22013,0.0672 -0.0103,0.3202 0.18976,0.70353 0.44442,0.85185 0.25466,0.14833 0.35528,0.27332 0.22357,0.27773 -0.13168,0.004 -0.0241,0.24617 0.23945,0.53721 0.26339,0.29105 0.37113,0.53182 0.23945,0.53504 -0.13171,0.003 0.0582,0.23874 0.42201,0.5233 0.3638,0.28456 0.50215,0.52004 0.30747,0.52329 -0.45331,0.007 -0.15981,2.05677 0.3828,2.67253 0.4196,0.47622 0.49742,1.56668 0.11179,1.56668 -0.14097,0 -0.21043,0.14883 -0.15439,0.33073 0.056,0.1819 0.17362,0.65815 0.2613,1.05833 0.0877,0.40018 0.28126,0.7276 0.43016,0.7276 0.29417,0 0.83016,0.39746 1.51641,1.12448 0.24037,0.25466 0.57645,0.46302 0.74684,0.46302 0.46575,0 0.63095,0.65887 0.63095,2.5163 0,1.13988 0.12748,1.80671 0.39688,2.0761 0.21828,0.21829 0.39687,0.52819 0.39687,0.68869 0,0.16047 0.17407,0.35856 0.3868,0.44021 0.21275,0.0816 0.45889,0.37555 0.547,0.65315 0.0881,0.2776 0.34123,0.50472 0.5625,0.50472 0.32115,0 0.36708,0.20847 0.2277,1.03341 -0.14015,0.82955 -0.0491,1.2341 0.46165,2.05052 0.34993,0.55941 0.7757,1.42322 0.94617,1.91961 0.17047,0.49636 0.62275,1.31262 1.0051,1.8139 0.44691,0.58589 0.71713,1.30299 0.75663,2.00792 0.0338,0.6031 0.19759,1.43394 0.36399,1.84632 0.16637,0.41241 0.24016,0.85066 0.16399,0.9739 -0.0762,0.12327 -0.0324,0.2897 0.0973,0.36987 0.1297,0.0801 0.23582,0.43457 0.23582,0.78758 0,0.35301 0.24889,0.909 0.55308,1.23553 0.30422,0.32652 0.47816,0.71493 0.38656,0.86315 -0.10059,0.16274 0.008,0.20256 0.27374,0.10051 0.44267,-0.16986 0.56179,0.14645 0.45379,1.20531 -0.0259,0.25567 0.13813,0.53602 0.36488,0.62304 0.22678,0.087 0.34322,0.27001 0.25877,0.40667 -0.0845,0.13665 -0.0331,0.39364 0.11422,0.5711 0.14729,0.17745 0.40978,0.88662 0.58335,1.57591 0.17357,0.68929 0.4205,1.25325 0.54874,1.25325 0.12825,0 0.23318,0.23109 0.23318,0.51356 0,0.28244 0.12719,0.59214 0.28263,0.68821 0.15544,0.0961 0.21698,0.34573 0.13674,0.5548 -0.0802,0.20907 0.0307,0.44789 0.24656,0.5307 0.21582,0.0828 0.39291,0.28668 0.39352,0.45302 0,0.16632 0.28046,0.85297 0.62187,1.52585 0.71414,1.40743 1.03923,2.33858 0.98161,2.81147 -0.0222,0.1819 0.1244,0.33073 0.3257,0.33073 0.46905,0 0.98012,1.11836 0.98012,2.14473 0,0.43831 0.11049,0.72861 0.24554,0.64516 0.13504,-0.0834 0.32165,0.0881 0.4147,0.38127 0.0931,0.29316 0.27647,0.533 0.40762,0.533 0.13115,0 0.16531,0.19061 0.0759,0.42357 -0.0894,0.23297 -0.0559,0.50086 0.0745,0.59532 0.28446,0.20613 1.9022,3.78827 2.25825,5.00038 0.1389,0.47295 0.38589,0.8599 0.54882,0.8599 0.16293,0 0.22106,0.0752 0.1292,0.16706 -0.0919,0.0919 0.007,0.416 0.22048,0.72033 0.21315,0.30429 0.38753,0.80986 0.38753,1.12347 0,0.31358 0.1786,0.7184 0.39688,0.89956 0.21828,0.18116 0.39687,0.48064 0.39687,0.66556 0,0.18489 0.15867,0.39706 0.35264,0.47148 0.19394,0.0744 0.62238,0.95036 0.9521,1.94652 0.3297,0.99618 1.12549,2.79601 1.7684,3.9996 0.64291,1.20361 1.46955,2.98955 1.83697,3.96875 0.36743,0.97922 1.06765,2.45306 1.55607,3.27525 1.64169,2.76362 2.01107,5.53056 1.2309,9.22075 -0.46535,2.20102 -0.64252,2.61224 -1.42481,3.3073 -1.25307,1.11331 -2.17123,1.84515 -2.17123,1.73061 0,-0.15592 -2.87861,0.82783 -3.22617,1.10249 -0.48855,0.38611 -3.4876,1.02132 -4.69069,0.99349 -0.59343,-0.0138 -1.83465,0.041 -2.75823,0.12149 -1.47132,0.12832 -1.69484,0.087 -1.80491,-0.33401 z M -308.627,147.4559 c -0.0845,-0.21106 -0.14716,-0.14838 -0.15985,0.15986 -0.0115,0.2789 0.051,0.43519 0.13896,0.34727 0.0879,-0.0879 0.0973,-0.31613 0.0209,-0.50713 z m 0.52917,-1.05833 c -0.0845,-0.21106 -0.14716,-0.14838 -0.15985,0.15986 -0.0115,0.2789 0.051,0.43518 0.13896,0.34726 0.0879,-0.0879 0.0973,-0.31612 0.0209,-0.50712 z m 0.51723,-2.46534 c -0.16561,-0.35351 -0.34212,-0.52358 -0.39226,-0.37793 -0.0501,0.14565 0.0422,0.42553 0.20519,0.6219 0.22546,0.27168 0.19579,0.39569 -0.12405,0.51843 -0.2355,0.0904 -0.33707,0.29612 -0.23094,0.46784 0.13388,0.21664 0.28531,0.17544 0.5163,-0.14047 0.24921,-0.34081 0.25533,-0.59968 0.0258,-1.08977 z m 0.9585,-2.77672 c 0.16321,0 0.0656,-0.17058 -0.21684,-0.37907 -0.35906,-0.26501 -0.5932,-0.29485 -0.77817,-0.0992 -0.17782,0.18809 -0.15613,0.31962 0.0661,0.40111 0.1819,0.0667 0.34694,0.37925 0.36676,0.69453 0.0355,0.56401 0.0379,0.56364 0.15069,-0.022 0.0631,-0.32742 0.2482,-0.59531 0.41142,-0.59531 z m 1.03353,-7.12049 c 0.19278,0.27627 0.23649,0.28228 0.1678,0.023 -0.1478,-0.55771 -0.60627,-0.49561 -0.63485,0.086 -0.0239,0.48647 -0.0166,0.48835 0.0902,0.0233 0.0954,-0.41535 0.16284,-0.43903 0.37688,-0.13229 z m -31.08426,-8.01037 c -0.0845,-0.21106 -0.14716,-0.14838 -0.15985,0.15986 -0.0115,0.2789 0.051,0.43519 0.13896,0.34727 0.0879,-0.0879 0.0973,-0.31613 0.0209,-0.50713 z m 97.77364,-51.232279 c 0.21149,-0.211482 -0.26603,-0.234686 -1.92625,-0.09358 -0.29963,0.0254 -0.4843,0.144145 -0.41039,0.263764 0.17016,0.275298 2.02633,0.140123 2.33664,-0.17018 z M -381.56816,239.05135 c 0,-0.14552 0.11907,-0.26459 0.26459,-0.26459 0.14552,0 0.26458,0.11907 0.26458,0.26459 0,0.14552 -0.11906,0.26458 -0.26458,0.26458 -0.14552,0 -0.26459,-0.11906 -0.26459,-0.26458 z m 15.91678,-25.92917 c 0,-0.3638 0.06,-0.51263 0.13345,-0.33073 0.0734,0.1819 0.0734,0.47956 0,0.66146 -0.0734,0.1819 -0.13345,0.0331 -0.13345,-0.33073 z m 4.30816,-12.19623 c -0.19976,-0.32322 0.57074,-1.22754 0.8273,-0.97097 0.21885,0.21883 -0.12573,1.26095 -0.41695,1.26095 -0.12713,0 -0.31179,-0.13049 -0.41035,-0.28998 z m -2.94725,-8.26167 c -0.0935,-0.15129 -0.0254,-0.17725 0.16163,-0.0616 0.20302,0.12549 0.29199,0.064 0.23932,-0.16537 -0.0461,-0.20079 0.0352,-0.42111 0.18074,-0.48958 0.14552,-0.0684 0.30003,0.12359 0.34335,0.42675 0.0822,0.57517 -0.6139,0.7933 -0.92504,0.28985 z m 11.29731,-6.5296 c 0,-0.14552 0.11907,-0.26459 0.26459,-0.26459 0.14552,0 0.26458,0.11907 0.26458,0.26459 0,0.14552 -0.11906,0.26458 -0.26458,0.26458 -0.14552,0 -0.26459,-0.11906 -0.26459,-0.26458 z m 0.52917,-4.23334 c 0,-0.29104 0.11906,-0.52916 0.26458,-0.52916 0.14552,0 0.26459,0.23812 0.26459,0.52916 0,0.29105 -0.11907,0.52917 -0.26459,0.52917 -0.14552,0 -0.26458,-0.23812 -0.26458,-0.52917 z m 0.52917,-1.32291 c 0,-0.14552 0.23812,-0.26459 0.52916,-0.26459 0.29104,0 0.52917,0.11907 0.52917,0.26459 0,0.14552 -0.23813,0.26458 -0.52917,0.26458 -0.29104,0 -0.52916,-0.11906 -0.52916,-0.26458 z m 157.29479,-44.45 c -0.0899,-0.14553 -0.0374,-0.26459 0.11668,-0.26459 0.15409,0 0.28019,0.11906 0.28019,0.26459 0,0.14552 -0.0525,0.26458 -0.11668,0.26458 -0.0642,0 -0.19026,-0.11906 -0.28019,-0.26458 z m -35.41007,-17.6389 c -0.097,-0.097 -0.17639,-0.29941 -0.17639,-0.44979 0,-0.16579 0.12323,-0.15016 0.31309,0.0397 0.1722,0.17222 0.25158,0.37463 0.17639,0.44979 -0.0752,0.0752 -0.21608,0.0573 -0.31309,-0.0397 z m 27.12726,-6.83506 c 0.005,-0.43657 0.0647,-0.58312 0.13179,-0.32571 0.0671,0.25744 0.0627,0.61463 -0.01,0.79375 -0.0725,0.17915 -0.12734,-0.0315 -0.12197,-0.46804 z M -336.6386,75.622686 c 0.191,-0.07644 0.4192,-0.06705 0.50712,0.0209 0.0879,0.08792 -0.0684,0.150469 -0.34727,0.138986 -0.30822,-0.0127 -0.37092,-0.07541 -0.15985,-0.159862 z m 95.47366,-2.930763 c -0.0652,-0.107686 0.0413,-0.343429 0.23661,-0.523875 0.19531,-0.180473 0.40845,-0.240004 0.47363,-0.132292 0.0652,0.107685 -0.0413,0.343429 -0.23662,0.523875 -0.19531,0.180472 -0.40844,0.240004 -0.47362,0.132292 z m -2.34033,-0.508821 c 0.191,-0.07644 0.4192,-0.06705 0.50712,0.0209 0.0879,0.08792 -0.0683,0.150468 -0.34726,0.138985 -0.30823,-0.0127 -0.37092,-0.07541 -0.15986,-0.159861 z m 0.84336,0.107236 c 0,-0.0404 0.23813,-0.277363 0.52917,-0.526574 0.50368,-0.431271 0.52917,-0.427725 0.52917,0.0735 0,0.350176 -0.17726,0.526573 -0.52917,0.526573 -0.29104,0 -0.52917,-0.03307 -0.52917,-0.0735 z m 3.30729,-0.191082 c 0.0899,-0.145521 0.27556,-0.264583 0.4125,-0.264583 0.13693,0 0.24896,0.119062 0.24896,0.264583 0,0.145521 -0.18562,0.264583 -0.41249,0.264583 -0.22687,0 -0.3389,-0.119062 -0.24897,-0.264583 z m -97.8402,-1.322917 c 0.0761,-0.291041 0.18403,-0.529166 0.23981,-0.529166 0.0558,0 0.10144,0.238125 0.10144,0.529166 0,0.291042 -0.10792,0.529167 -0.23982,0.529167 -0.13189,0 -0.17754,-0.238125 -0.10143,-0.529167 z m 96.9611,-1.134083 c -0.26298,-0.316865 -0.24075,-0.423969 0.11647,-0.561049 0.55301,-0.212196 0.60806,-0.14605 0.38623,0.464 -0.15462,0.425238 -0.21987,0.437859 -0.5027,0.09705 z m 1.0114,-1.247167 c 0,-0.145521 0.11906,-0.264583 0.26458,-0.264583 0.14552,0 0.26458,0.119062 0.26458,0.264583 0,0.145521 -0.11906,0.264584 -0.26458,0.264584 -0.14552,0 -0.26458,-0.119063 -0.26458,-0.264584 z m -2.16628,-3.62032 c 0.191,-0.07644 0.4192,-0.06705 0.50712,0.0209 0.0879,0.08792 -0.0683,0.150468 -0.34727,0.138986 -0.30822,-0.0127 -0.37092,-0.07541 -0.15985,-0.159862 z m 39.09425,-0.58293 c -0.0797,-0.128985 0.083,-0.294085 0.36145,-0.366924 0.35454,-0.09271 0.46418,-0.02249 0.3656,0.2345 -0.15986,0.416586 -0.51181,0.480695 -0.72705,0.132424 z m 17.33249,-3.932688 c -0.0164,-0.464185 0.12483,-0.595312 0.64058,-0.595312 0.3638,0 0.66146,0.119062 0.66146,0.264583 0,0.145521 -0.22821,0.264583 -0.50713,0.264583 -0.2789,0 -0.56716,0.148829 -0.64056,0.33073 -0.0734,0.181901 -0.14284,0.06284 -0.15435,-0.264584 z m 13.73745,-1.641554 c 0.21828,-0.147717 0.58277,-0.270404 0.81,-0.272627 0.22722,-0.0026 0.68003,-0.252703 1.00626,-0.556604 0.43985,-0.409813 0.99968,-0.569648 2.16654,-0.618649 1.56795,-0.06583 2.10942,0.187696 0.97814,0.457994 -0.32742,0.07824 -1.36922,0.330333 -2.3151,0.560203 -2.85237,0.693208 -3.09304,0.732287 -2.64584,0.429683 z m -6.48229,-3.716258 c 0.0899,-0.145521 0.21603,-0.264584 0.2802,-0.264584 0.0642,0 0.11668,0.119063 0.11668,0.264584 0,0.14552 -0.1261,0.264583 -0.2802,0.264583 -0.15412,0 -0.20661,-0.119063 -0.11668,-0.264583 z m -7.14375,-4.233334 c 0.0899,-0.145521 0.21603,-0.264583 0.2802,-0.264583 0.0642,0 0.11668,0.119062 0.11668,0.264583 0,0.145521 -0.1261,0.264583 -0.2802,0.264583 -0.15412,0 -0.20661,-0.119062 -0.11668,-0.264583 z m -53.18125,-3.439583 c -0.0899,-0.145521 -0.0374,-0.264584 0.11668,-0.264584 0.15411,0 0.2802,0.119063 0.2802,0.264584 0,0.14552 -0.0525,0.264583 -0.11668,0.264583 -0.0642,0 -0.19026,-0.119063 -0.2802,-0.264583 z m 1.98438,-3.940268 c 0,-0.178364 -0.11907,-0.250711 -0.26459,-0.160774 -0.14552,0.08994 -0.26458,0.03743 -0.26458,-0.116676 0,-0.154109 0.11204,-0.280199 0.24897,-0.280199 0.32666,0 0.64225,0.51989 0.43898,0.723159 -0.0873,0.08733 -0.15878,0.01285 -0.15878,-0.16551 z m -0.19341,-8.149337 c 0.25744,-0.06708 0.61462,-0.06267 0.79375,0.0098 0.17914,0.07248 -0.0315,0.127363 -0.46805,0.121971 -0.43656,-0.0054 -0.58313,-0.06469 -0.3257,-0.131773 z m -2.14388,-6.398461 c -0.28152,-0.178456 -0.26377,-0.257921 0.0878,-0.392824 0.58795,-0.225616 0.58316,-0.227058 0.75769,0.227764 0.16622,0.433165 -0.2839,0.521041 -0.84547,0.16506 z m -102.8586,-2.248895 c -0.22416,-0.58415 0.0741,-0.882369 0.47821,-0.478213 0.23863,0.238628 0.23965,0.386535 0.004,0.621916 -0.23537,0.235379 -0.35012,0.201203 -0.48247,-0.143703 z m 101.26891,-3.340124 c 0,-0.363802 0.0601,-0.51263 0.13345,-0.330729 0.0734,0.181901 0.0734,0.479557 0,0.661458 -0.0734,0.181901 -0.13345,0.03307 -0.13345,-0.330729 z m 4.88575,-4.974127 c -0.0719,-0.116396 0.0866,-0.347406 0.35235,-0.513358 0.41401,-0.258551 0.46394,-0.228266 0.3489,0.211627 -0.13852,0.529704 -0.47175,0.673084 -0.70125,0.301731 z"
       id="path171" /></g></svg>
